<?xml version="1.0" standalone="no"?>
<!DOCTYPE svg PUBLIC "-//W3C//DTD SVG 20010904//EN"
 "http://www.w3.org/TR/2001/REC-SVG-20010904/DTD/svg10.dtd">
<svg version="1.0" xmlns="http://www.w3.org/2000/svg"
 width="300.000000pt" height="56.000000pt" viewBox="0 0 300.000000 56.000000"
 preserveAspectRatio="xMidYMid meet">

<g transform="translate(0.000000,56.000000) scale(0.100000,-0.100000)"
fill="#000000" stroke="none">
<path d="M188 540 c-55 -30 -137 -117 -164 -174 -28 -60 -29 -75 -9 -102 8
-10 15 -29 15 -42 0 -36 28 -81 54 -88 12 -3 40 -26 61 -51 71 -85 173 -105
278 -54 76 37 122 125 90 171 -8 12 -13 29 -10 39 6 25 -10 50 -38 61 -17 7
-24 19 -29 52 -10 68 -10 71 7 109 14 32 14 38 1 57 -17 24 -64 29 -110 12
-22 -9 -31 -7 -49 10 -26 25 -49 25 -97 0z m82 -15 c11 -13 9 -19 -11 -33 -54
-37 -113 -100 -141 -149 -33 -59 -69 -88 -87 -70 -38 38 45 173 148 239 51 32
73 35 91 13z m66 -78 c4 -4 -4 -7 -18 -7 -14 0 -45 -7 -69 -15 l-44 -15 26 23
c26 23 88 31 105 14z m72 -69 c7 -7 12 -26 12 -44 0 -26 7 -36 35 -53 30 -17
34 -24 26 -40 -15 -26 -82 -51 -141 -51 -46 0 -50 -2 -50 -25 0 -44 67 -59
135 -31 47 20 45 27 -2 10 -69 -24 -120 -16 -120 19 0 14 9 17 48 17 27 0 67
7 89 16 39 16 42 16 55 -2 15 -20 11 -45 -13 -82 -38 -59 -145 -73 -200 -27
-37 31 -47 76 -26 117 15 29 15 34 0 59 -34 58 -3 115 57 104 21 -4 39 -1 52
9 25 19 28 19 43 4z m-282 -116 c15 -10 34 -47 34 -66 0 -9 -9 -25 -20 -36
-21 -21 -42 -18 -72 8 -47 40 8 128 58 94z"/>
<path d="M390 323 c0 -13 5 -23 10 -23 13 0 13 11 0 30 -8 12 -10 11 -10 -7z"/>
<path d="M309 293 c19 -4 21 -7 10 -15 -10 -7 -11 -9 -1 -6 24 6 18 23 -8 25
l-25 1 24 -5z"/>
<path d="M333 153 c9 -2 23 -2 30 0 6 3 -1 5 -18 5 -16 0 -22 -2 -12 -5z"/>
<path d="M79 228 c-9 -19 -9 -21 2 -10 20 18 29 15 29 -13 0 -14 4 -25 8 -25
10 0 9 41 -1 58 -12 18 -25 15 -38 -10z"/>
<path d="M1032 383 c2 -12 12 -18 28 -18 36 0 33 29 -3 33 -23 3 -28 0 -25
-15z"/>
<path d="M1110 300 l0 -100 25 0 25 0 0 100 0 100 -25 0 -25 0 0 -100z"/>
<path d="M1330 300 l0 -100 29 0 c29 0 30 2 33 52 4 74 28 77 28 4 0 -56 0
-56 30 -56 21 0 30 5 30 16 0 13 3 14 13 5 7 -6 27 -10 43 -10 16 0 44 -3 62
-7 l32 -6 0 43 c0 24 4 50 9 58 16 25 31 1 31 -50 0 -46 2 -49 25 -49 23 0 25
4 25 43 0 23 5 49 10 57 15 23 30 -5 30 -57 0 -39 2 -43 25 -43 24 0 25 3 25
60 0 47 -4 64 -20 80 -25 25 -35 25 -60 0 -17 -17 -21 -18 -26 -6 -9 25 -43
30 -65 10 -11 -10 -19 -12 -19 -6 0 7 -9 12 -20 12 -13 0 -20 -7 -20 -18 0
-15 -8 -19 -41 -18 -23 1 -44 -4 -46 -10 -2 -7 7 -9 26 -6 44 6 45 -13 0 -25
l-39 -10 0 32 c0 32 -25 65 -50 65 -7 0 -22 -7 -32 -17 -17 -15 -18 -14 -18
20 0 33 -3 37 -25 37 l-25 0 0 -100z m228 -52 c-5 -15 -48 -24 -48 -10 0 14
12 22 33 22 10 0 17 -5 15 -12z"/>
<path d="M2848 358 c-3 -7 -2 -40 1 -73 6 -55 8 -60 31 -62 14 -1 18 0 8 3
-24 7 -26 104 -3 104 8 0 15 5 15 10 0 6 -7 10 -15 10 -8 0 -15 5 -15 10 0 14
-17 12 -22 -2z"/>
<path d="M666 338 c-13 -18 -16 -19 -16 -5 0 10 -8 17 -20 17 -18 0 -20 -7
-20 -75 l0 -75 30 0 c30 0 30 0 30 56 0 73 24 70 28 -4 3 -50 4 -52 33 -52 29
0 29 1 29 56 0 77 24 69 28 -9 3 -53 5 -57 27 -57 24 0 25 2 25 68 0 74 -5 86
-36 96 -14 4 -26 0 -39 -14 -18 -20 -18 -20 -32 0 -19 26 -48 25 -67 -2z"/>
<path d="M900 351 c-16 -4 -26 -15 -28 -30 -3 -20 -1 -22 20 -16 25 8 26 8 46
6 26 -2 11 -21 -17 -21 -60 0 -86 -71 -34 -91 22 -8 32 -6 55 11 23 17 28 18
28 5 0 -8 9 -15 20 -15 18 0 20 7 20 55 0 46 -4 60 -25 80 -25 25 -41 28 -85
16z m50 -101 c0 -12 -28 -25 -36 -17 -9 9 6 27 22 27 8 0 14 -5 14 -10z"/>
<path d="M1223 350 c-48 -19 -58 -95 -18 -135 38 -39 105 -27 105 18 0 20 -4
23 -36 19 -38 -5 -57 10 -47 36 4 9 18 13 44 10 36 -3 39 -2 39 23 0 35 -39
48 -87 29z"/>
<path d="M1890 338 c-17 -18 -20 -19 -20 -5 0 10 -8 17 -20 17 -19 0 -20 -7
-20 -100 l0 -100 30 0 c27 0 30 3 30 30 0 28 1 29 25 18 22 -10 29 -9 47 10
31 30 30 108 -1 134 -30 24 -46 23 -71 -4z m38 -72 c3 -32 1 -37 -15 -34 -19
3 -29 38 -19 65 10 26 31 8 34 -31z"/>
<path d="M1030 275 l0 -75 30 0 30 0 0 75 0 75 -30 0 -30 0 0 -75z"/>
<path d="M2075 260 c0 -89 0 -90 25 -90 19 0 21 3 12 12 -22 22 -13 38 22 38
60 0 89 76 45 115 -17 16 -25 17 -50 8 -16 -6 -29 -7 -29 -2 0 5 -6 9 -12 9
-10 0 -13 -25 -13 -90z m87 63 c30 -27 21 -93 -12 -93 -39 0 -50 11 -50 51 0
26 6 41 18 48 23 14 23 14 44 -6z"/>
<path d="M2227 343 c-4 -3 -2 -12 4 -19 6 -8 9 -34 7 -59 -2 -35 0 -45 12 -45
11 0 15 12 15 52 0 40 4 53 15 54 8 1 19 2 25 3 5 0 4 6 -2 12 -8 8 -17 8 -32
0 -14 -8 -21 -8 -21 -1 0 11 -13 13 -23 3z"/>
<path d="M2337 332 c-21 -23 -22 -76 -1 -96 19 -20 68 -21 84 -2 10 13 7 13
-18 4 -35 -14 -62 1 -62 33 0 16 8 19 45 19 37 0 45 3 45 18 0 42 -63 58 -93
24z m57 2 c30 -12 18 -34 -19 -34 -37 0 -43 8 -23 28 14 14 20 14 42 6z"/>
<path d="M2462 338 c-20 -20 -14 -38 23 -59 19 -12 35 -25 35 -30 0 -16 -32
-23 -51 -10 -16 9 -19 8 -19 -5 0 -12 9 -14 38 -12 32 3 37 7 40 30 3 21 -3
30 -27 43 -17 8 -31 20 -31 26 0 17 29 22 47 8 14 -12 16 -12 11 1 -6 19 -49
25 -66 8z"/>
<path d="M2570 330 c-41 -41 -14 -110 41 -110 25 0 75 29 52 30 -6 0 -15 -4
-18 -10 -11 -17 -43 -11 -59 12 -24 34 -20 38 34 38 54 0 65 14 32 43 -25 23
-58 21 -82 -3z m70 -5 c18 -21 9 -27 -36 -23 -36 3 -37 4 -20 21 21 21 40 22
56 2z"/>
<path d="M2695 285 c0 -51 3 -65 15 -65 11 0 15 12 15 52 0 52 0 53 30 53 30
0 30 -1 30 -53 0 -40 3 -52 16 -52 12 0 14 9 9 53 -3 28 -9 58 -13 65 -10 15
-49 16 -65 0 -9 -9 -12 -9 -12 0 0 7 -6 12 -12 12 -9 0 -13 -20 -13 -65z"/>
<path d="M2921 332 c-11 -21 -6 -31 32 -55 27 -18 35 -41 17 -50 -6 -3 -5 -4
2 -3 6 1 16 10 22 19 9 15 4 24 -29 52 -34 28 -37 34 -22 40 9 4 24 2 32 -5
12 -10 15 -9 15 4 0 23 -56 22 -69 -2z"/>
<path d="M2910 236 c0 -10 8 -16 22 -16 12 0 19 1 17 3 -2 1 -12 9 -21 16 -15
12 -18 11 -18 -3z"/>
</g>
</svg>
